# Blender 4.5.3 LTS
# www.blender.org
mtllib surface.mtl
o Plane
v -9.423012 0.000000 9.423012
v 9.423012 0.000000 9.423012
v -9.423012 0.000000 -9.423012
v 9.423012 0.000000 -9.423012
v -9.423012 2.203435 9.423012
v 9.423012 2.203435 9.423012
v -9.423012 2.203435 -9.423012
vn -0.0000 1.0000 -0.0000
vn -0.0000 -0.0000 -1.0000
vn 1.0000 -0.0000 -0.0000
vt 0.000000 0.000000
vt 1.000000 0.000000
vt 1.000000 1.000000
vt 0.000000 1.000000
s 0
f 1/1/1 2/2/1 4/3/1 3/4/1
f 2/2/2 1/1/2 5/1/2 6/2/2
f 1/1/3 3/4/3 7/4/3 5/1/3
